<svg width="40" height="40" viewBox="0 0 40 40" fill="none" xmlns="http://www.w3.org/2000/svg">
<circle cx="20" cy="20" r="17.5" stroke="#017EFE" stroke-width="3"/>
<path d="M20 2.5C22.2769 2.5 24.6217 4.10587 26.4805 7.31641C28.3167 10.4881 29.5 14.9693 29.5 20C29.5 25.0307 28.3167 29.5119 26.4805 32.6836C24.6217 35.8941 22.2769 37.5 20 37.5C17.7231 37.5 15.3783 35.8941 13.5195 32.6836C11.6833 29.5119 10.5 25.0307 10.5 20C10.5 14.9693 11.6833 10.4881 13.5195 7.31641C15.3783 4.10587 17.7231 2.5 20 2.5Z" stroke="#017EFE" stroke-width="3"/>
<path d="M3 20H37" stroke="#017EFE" stroke-width="3"/>
<path d="M20 36.0049L20 2.00488" stroke="#017EFE" stroke-width="3"/>
</svg>
