<svg width="40" height="40" viewBox="0 0 40 40" fill="none" xmlns="http://www.w3.org/2000/svg">
<path fill-rule="evenodd" clip-rule="evenodd" d="M20 39C9.49228 39 1 30.5077 1 20C1 9.49228 9.49228 1 20 1C30.5077 1 39 9.49228 39 20C39 30.5077 30.5077 39 20 39ZM33.9325 20C33.9325 12.2942 27.7058 6.06747 20 6.06747C12.2942 6.06747 6.06747 12.2942 6.06747 20C6.06747 27.7058 12.2942 33.9325 20 33.9325C27.7058 33.9325 33.9325 27.7058 33.9325 20ZM15.3125 19.24C13.1408 19.24 11.3875 17.4843 11.3875 15.3125C11.3875 13.1408 13.1408 11.3875 15.3125 11.3875C17.4843 11.3875 19.24 13.1408 19.24 15.3125C19.24 17.4843 17.4843 19.24 15.3125 19.24ZM15.3125 28.6125C13.1408 28.6125 11.3875 26.8592 11.3875 24.6875C11.3875 22.5157 13.1408 20.76 15.3125 20.76C17.4843 20.76 19.24 22.5157 19.24 24.6875C19.24 26.8592 17.4843 28.6125 15.3125 28.6125ZM24.6875 28.6125C22.5157 28.6125 20.76 26.8592 20.76 24.6875C20.76 22.5157 22.5157 20.76 24.6875 20.76C26.8592 20.76 28.6125 22.5157 28.6125 24.6875C28.6125 26.8592 26.8592 28.6125 24.6875 28.6125ZM24.6875 19.24C22.5157 19.24 20.76 17.4843 20.76 15.3125C20.76 13.1408 22.5157 11.3875 24.6875 11.3875C26.8592 11.3875 28.6125 13.1408 28.6125 15.3125C28.6125 17.4843 26.8592 19.24 24.6875 19.24Z" fill="#F22F46"/>
</svg>
