<svg xmlns="http://www.w3.org/2000/svg" width="256" height="256" viewBox="0 0 256 256">
  <defs>
    <!-- Yellow gradient definition -->
    <linearGradient id="yellowGradient" x1="0%" y1="0%" x2="0%" y2="100%">
      <stop offset="0%" stop-color="#FFD54F"/>   <!-- light golden yellow -->
      <stop offset="100%" stop-color="#FFA000"/> <!-- rich amber -->
    </linearGradient>
  </defs>

  <path fill="url(#yellowGradient)" 
        transform="rotate(360,128,128) translate(32.4359817504883,0) scale(8,8)"
        d="M 11.724 3.173 z L 14.6285 3.578 C 17.8085 4.571 20.1934 6.857 20.1934 9.739 C 20.1934 10.634 19.9954 11.429 19.5974 12.124 C 19.3984 14.807 19.3984 18.882 21.4854 20.87 C 24.7654 23.851 23.8704 26.037 23.4734 26.733 L 13.2375 26.733 L 12.3435 26.733 L 12.3435 29.118 L 12.4425 29.118 C 12.9395 29.317 13.3365 29.814 13.3365 30.509 C 13.3365 31.304 12.6415 32 11.8465 32 C 11.0515 32 10.3555 31.304 10.3555 30.509 C 10.3555 29.913 10.7525 29.416 11.2495 29.118 L 11.3495 29.118 L 11.3495 26.733 L 10.4545 26.733 L 0.4176 26.733 C 0.0206 26.037 -0.8744 23.752 2.4056 20.87 C 4.7905 18.783 4.5916 13.913 4.2936 11.329 C 4.0946 10.733 3.9956 10.137 3.9956 9.64 C 3.9956 6.857 5.9825 4.472 9.0635 3.578 L 9.3615 3.478 z"/>
</svg>