<svg width="40" height="40" viewBox="0 0 40 40" fill="none" xmlns="http://www.w3.org/2000/svg">
<path d="M23 4H5C3.89543 4 3 4.89543 3 6V27.3488C3 27.5458 3.25492 27.6241 3.36553 27.461L7.27108 21.7021C7.79213 20.9338 8.66011 20.4737 9.58844 20.4737H23C24.1046 20.4737 25 19.5783 25 18.4737V6C25 4.89543 24.1046 4 23 4Z" fill="#34A853"/>
<path d="M30.4194 27.4737H18.2C17.0954 27.4737 16.2 26.5783 16.2 25.4737V23.8533C16.2 23.0801 16.8268 22.4533 17.6 22.4533H23.8125C26.132 22.4533 28.0125 20.5729 28.0125 18.2533V12.4C28.0125 11.6268 28.6393 11 29.4125 11H35.2C36.3045 11 37.2 11.8954 37.2 13V36.2032C37.2 36.4112 36.9219 36.481 36.8237 36.2977L32.8875 28.9513C32.4 28.0415 31.4516 27.4737 30.4194 27.4737Z" fill="#4285F4"/>
</svg>
