<?xml version="1.0" encoding="utf-8"?>
<svg xmlns="http://www.w3.org/2000/svg" style="
    transform: translate(4px, 0px);" height="256" width="256" viewBox="0 0 256 256">
  <g>
    <path id="path1" transform="rotate(0,128,128) translate(21.4359512696092,0) scale(8.00000286102397,8.00000286102397)  " fill="#9a72f0" d="M13.397115,26.927824C13.456121,26.930815,13.513121,26.951811,13.561118,26.990812L17.07315,29.91682C17.199151,30.022838 17.216149,30.208811 17.110154,30.336801 17.077147,30.375803 17.03115,30.409799 16.981154,30.428842L12.713111,31.982788C12.614111,32.017822 12.50311,31.998779 12.421108,31.930786 12.341106,31.862795 12.301112,31.757814 12.31911,31.65381L13.066118,27.183866C13.074114,27.132841 13.097117,27.08383 13.131114,27.043852 13.196117,26.963835 13.299114,26.921842 13.397115,26.927824z M19.548171,19.462902C19.627173,19.455883,19.705178,19.478893,19.765176,19.529857L23.280208,22.440851C23.405208,22.544853,23.423205,22.731865,23.31821,22.857841L18.189158,29.051836C18.138162,29.111833 18.066163,29.149797 17.98816,29.156816 17.909156,29.164812 17.831161,29.139848 17.771155,29.0898L14.264128,26.169834C14.140125,26.06583,14.121128,25.879856,14.226125,25.75382L19.348172,19.568857C19.398175,19.508861,19.470176,19.46986,19.548171,19.462902z M3.0050237,17.124903L3.0050237,18.547867 12.989115,18.547867 12.989115,17.124903z M23.433208,15.498873C23.739211,15.495883,24.030213,15.597934,24.264216,15.792878L26.178235,17.376915C26.736239,17.842916,26.798236,18.689895,26.317237,19.269909L24.408216,21.576841C24.301219,21.704893,24.113214,21.724851,23.988214,21.621885L20.501184,18.734878C20.441184,18.684891 20.404181,18.612869 20.398185,18.533891 20.39218,18.454912 20.417182,18.376909 20.469184,18.31386L22.379197,16.006927C22.6142,15.723909 22.941207,15.545932 23.301211,15.505893 23.34521,15.501925 23.389209,15.498873 23.433208,15.498873z M3.0050237,10.959959L3.0050237,12.382925 17.311152,12.382925 17.311152,10.959959z M14.860133,1.00799L19.358174,5.7949498 15.80714,5.7949498C15.284133,5.7949498,14.860133,5.3699644,14.860133,4.846957z M2.0550187,0L13.489119,0 13.489119,5.1109326C13.489119,6.2459362,14.409125,7.1659744,15.543139,7.1659744L20.33818,7.1659744 20.33818,16.898889 12.802116,25.854833C12.696113,25.980869,12.623114,26.13187,12.590109,26.292818L12.029107,28.979814 2.0550187,28.979814C0.92100567,28.979814,-1.7945968E-07,28.059837,0,26.924833L0,2.054981C-1.7945968E-07,0.91997762,0.92100567,0,2.0550187,0z" />
  </g>
</svg>
