<svg width="40" height="40" viewBox="0 0 40 40" fill="none" xmlns="http://www.w3.org/2000/svg">
<mask id="mask0_8655_45" style="mask-type:luminance" maskUnits="userSpaceOnUse" x="6" y="1" width="28" height="38">
<path d="M33.4769 1H6V39H33.4769V1Z" fill="white"/>
</mask>
<g mask="url(#mask0_8655_45)">
<mask id="mask1_8655_45" style="mask-type:alpha" maskUnits="userSpaceOnUse" x="6" y="1" width="28" height="38">
<path d="M23.1731 1H8.57596C7.15918 1 6 2.16591 6 3.59091V36.4091C6 37.8341 7.15918 39 8.57596 39H30.9009C32.3177 39 33.4769 37.8341 33.4769 36.4091V11.3636L23.1731 1Z" fill="white"/>
</mask>
<g mask="url(#mask1_8655_45)">
<path d="M23.1731 1H8.57596C7.15918 1 6 2.16591 6 3.59091V36.4091C6 37.8341 7.15918 39 8.57596 39H30.9009C32.3177 39 33.4769 37.8341 33.4769 36.4091V11.3636L27.4664 7.04546L23.1731 1Z" fill="#4285F4"/>
</g>
<mask id="mask2_8655_45" style="mask-type:alpha" maskUnits="userSpaceOnUse" x="6" y="1" width="28" height="38">
<path d="M23.1731 1H8.57596C7.15918 1 6 2.16591 6 3.59091V36.4091C6 37.8341 7.15918 39 8.57596 39H30.9009C32.3177 39 33.4769 37.8341 33.4769 36.4091V11.3636L23.1731 1Z" fill="white"/>
</mask>
<g mask="url(#mask2_8655_45)">
<path d="M23.9265 10.606L33.4769 20.2096V11.3638L23.9265 10.606Z" fill="url(#paint0_linear_8655_45)"/>
</g>
<mask id="mask3_8655_45" style="mask-type:alpha" maskUnits="userSpaceOnUse" x="6" y="1" width="28" height="38">
<path d="M23.1731 1H8.57596C7.15918 1 6 2.16591 6 3.59091V36.4091C6 37.8341 7.15918 39 8.57596 39H30.9009C32.3177 39 33.4769 37.8341 33.4769 36.4091V11.3636L23.1731 1Z" fill="white"/>
</mask>
<g mask="url(#mask3_8655_45)">
<path d="M12.8692 28.6364H26.6077V26.9091H12.8692V28.6364ZM12.8692 32.0909H23.1731V30.3636H12.8692V32.0909ZM12.8692 20V21.7273H26.6077V20H12.8692ZM12.8692 25.1818H26.6077V23.4545H12.8692V25.1818Z" fill="#F1F1F1"/>
</g>
<mask id="mask4_8655_45" style="mask-type:alpha" maskUnits="userSpaceOnUse" x="6" y="1" width="28" height="38">
<path d="M23.1731 1H8.57596C7.15918 1 6 2.16591 6 3.59091V36.4091C6 37.8341 7.15918 39 8.57596 39H30.9009C32.3177 39 33.4769 37.8341 33.4769 36.4091V11.3636L23.1731 1Z" fill="white"/>
</mask>
<g mask="url(#mask4_8655_45)">
<path d="M23.173 1V8.77271C23.173 10.2042 24.3258 11.3636 25.749 11.3636H33.4769L23.173 1Z" fill="#A1C2FA"/>
</g>
<mask id="mask5_8655_45" style="mask-type:alpha" maskUnits="userSpaceOnUse" x="6" y="1" width="28" height="38">
<path d="M23.1731 1H8.57596C7.15918 1 6 2.16591 6 3.59091V36.4091C6 37.8341 7.15918 39 8.57596 39H30.9009C32.3177 39 33.4769 37.8341 33.4769 36.4091V11.3636L23.1731 1Z" fill="white"/>
</mask>
<g mask="url(#mask5_8655_45)">
<path d="M8.57596 1C7.15918 1 6 2.16591 6 3.59091V3.80682C6 2.38182 7.15918 1.21591 8.57596 1.21591H23.1731V1H8.57596Z" fill="white" fill-opacity="0.2"/>
</g>
<mask id="mask6_8655_45" style="mask-type:alpha" maskUnits="userSpaceOnUse" x="6" y="1" width="28" height="38">
<path d="M23.1731 1H8.57596C7.15918 1 6 2.16591 6 3.59091V36.4091C6 37.8341 7.15918 39 8.57596 39H30.9009C32.3177 39 33.4769 37.8341 33.4769 36.4091V11.3636L23.1731 1Z" fill="white"/>
</mask>
<g mask="url(#mask6_8655_45)">
<path d="M30.9009 38.7843H8.57596C7.15918 38.7843 6 37.6184 6 36.1934V36.4093C6 37.8343 7.15918 39.0002 8.57596 39.0002H30.9009C32.3177 39.0002 33.4769 37.8343 33.4769 36.4093V36.1934C33.4769 37.6184 32.3177 38.7843 30.9009 38.7843Z" fill="#1A237E" fill-opacity="0.2"/>
</g>
<mask id="mask7_8655_45" style="mask-type:alpha" maskUnits="userSpaceOnUse" x="6" y="1" width="28" height="38">
<path d="M23.1731 1H8.57596C7.15918 1 6 2.16591 6 3.59091V36.4091C6 37.8341 7.15918 39 8.57596 39H30.9009C32.3177 39 33.4769 37.8341 33.4769 36.4091V11.3636L23.1731 1Z" fill="white"/>
</mask>
<g mask="url(#mask7_8655_45)">
<path d="M25.749 11.3639C24.3258 11.3639 23.173 10.2044 23.173 8.77295V8.98886C23.173 10.4204 24.3258 11.5798 25.749 11.5798H33.4769V11.3639H25.749Z" fill="#1A237E" fill-opacity="0.1"/>
</g>
<path d="M23.1731 1H8.57596C7.15918 1 6 2.16591 6 3.59091V36.4091C6 37.8341 7.15918 39 8.57596 39H30.9009C32.3177 39 33.4769 37.8341 33.4769 36.4091V11.3636L23.1731 1Z" fill="url(#paint1_radial_8655_45)"/>
</g>
<defs>
<linearGradient id="paint0_linear_8655_45" x1="28.7022" y1="11.4306" x2="28.7022" y2="20.211" gradientUnits="userSpaceOnUse">
<stop stop-color="#1A237E" stop-opacity="0.2"/>
<stop offset="1" stop-color="#1A237E" stop-opacity="0.02"/>
</linearGradient>
<radialGradient id="paint1_radial_8655_45" cx="0" cy="0" r="1" gradientUnits="userSpaceOnUse" gradientTransform="translate(6.87048 1.75107) scale(44.3061 44.3061)">
<stop stop-color="white" stop-opacity="0.1"/>
<stop offset="1" stop-color="white" stop-opacity="0"/>
</radialGradient>
</defs>
</svg>
