<svg width="40" height="40" viewBox="0 0 40 40" fill="none" xmlns="http://www.w3.org/2000/svg">
<path d="M29.6666 10H9.66663V30H29.6666V10Z" fill="white"/>
<path d="M29.6666 39L38.6666 30H29.6666V39Z" fill="#EA4335"/>
<path d="M38.6666 10H29.6666V30H38.6666V10Z" fill="#FBBC04"/>
<path d="M29.6666 30H9.66663V39H29.6666V30Z" fill="#34A853"/>
<path d="M0.666626 30V36C0.666626 37.6575 2.00913 39 3.66663 39H9.66663V30H0.666626Z" fill="#188038"/>
<path d="M38.6666 10V4C38.6666 2.3425 37.3241 1 35.6666 1H29.6666V10H38.6666Z" fill="#1967D2"/>
<path d="M29.6666 1H3.66663C2.00913 1 0.666626 2.3425 0.666626 4V30H9.66663V10H29.6666V1Z" fill="#4285F4"/>
<path d="M13.7691 25.5151C13.0216 25.0101 12.5041 24.2726 12.2216 23.2976L13.9566 22.5826C14.1141 23.1826 14.3891 23.6476 14.7816 23.9776C15.1716 24.3076 15.6466 24.4701 16.2016 24.4701C16.7691 24.4701 17.2566 24.2976 17.6641 23.9526C18.0716 23.6076 18.2766 23.1676 18.2766 22.6351C18.2766 22.0901 18.0616 21.6451 17.6316 21.3001C17.2016 20.9551 16.6616 20.7826 16.0166 20.7826H15.0141V19.0651H15.9141C16.4691 19.0651 16.9366 18.9151 17.3166 18.6151C17.6966 18.3151 17.8866 17.9051 17.8866 17.3826C17.8866 16.9176 17.7166 16.5476 17.3766 16.2701C17.0366 15.9926 16.6066 15.8526 16.0841 15.8526C15.5741 15.8526 15.1691 15.9876 14.8691 16.2601C14.5693 16.5333 14.3439 16.8783 14.2141 17.2626L12.4966 16.5476C12.7241 15.9026 13.1416 15.3326 13.7541 14.8401C14.3666 14.3476 15.1491 14.1001 16.0991 14.1001C16.8016 14.1001 17.4341 14.2351 17.9941 14.5076C18.5541 14.7801 18.9941 15.1576 19.3116 15.6376C19.6291 16.1201 19.7866 16.6601 19.7866 17.2601C19.7866 17.8726 19.6391 18.3901 19.3441 18.8151C19.0491 19.2401 18.6866 19.5651 18.2566 19.7926V19.8951C18.8119 20.124 19.2942 20.5 19.6516 20.9826C20.0141 21.4701 20.1966 22.0526 20.1966 22.7326C20.1966 23.4126 20.0241 24.0201 19.6791 24.5526C19.3341 25.0851 18.8566 25.5051 18.2516 25.8101C17.6441 26.1151 16.9616 26.2701 16.2041 26.2701C15.3266 26.2726 14.5166 26.0201 13.7691 25.5151ZM24.4266 16.9051L22.5216 18.2826L21.5691 16.8376L24.9866 14.3726H26.2966V26.0001H24.4266V16.9051Z" fill="#4285F4"/>
</svg>
