<svg width="40" height="40" viewBox="0 0 40 40" fill="none" xmlns="http://www.w3.org/2000/svg">
<g clip-path="url(#clip0_8693_65)">
<path d="M14.6254 15.8735C14.3924 15.1083 15.1079 14.393 15.8731 14.6257L35.5326 20.6085C35.8936 20.7185 36.0072 21.1737 35.7405 21.4406L32.4211 24.76C31.8353 25.3458 31.8353 26.2955 32.4211 26.8813L36.1728 30.633C37.5395 31.9997 37.5393 34.2159 36.1728 35.5827L35.5831 36.1725C34.2162 37.5393 32.0001 37.5393 30.6333 36.1725L26.8816 32.4208C26.2959 31.835 25.3461 31.835 24.7603 32.4208L21.4409 35.7402C21.174 36.0071 20.7187 35.8934 20.6088 35.5323L14.6254 15.8735Z" fill="#4F97F9" stroke="#0042AF" stroke-linecap="round" stroke-linejoin="round"/>
<path d="M28.6312 14.4332C28.3376 12.0665 27.385 9.82999 25.8821 7.97844C24.3791 6.12689 22.3862 4.73483 20.1305 3.96092C17.8748 3.18701 15.4471 3.06238 13.124 3.60125C10.8009 4.14012 8.67595 5.32079 6.9913 7.00871C5.30665 8.69663 4.13009 10.8239 3.59573 13.148C3.06137 15.4721 3.1907 17.8996 3.96898 20.1538C4.74726 22.408 6.14318 24.3982 7.99764 25.8976C9.8521 27.397 12.0905 28.3452 14.4577 28.6341" stroke="#FFC301" stroke-width="2" stroke-linecap="round"/>
<path d="M23.4135 12.8401C22.8961 11.6471 22.097 10.5975 21.0848 9.78131C20.0726 8.96508 18.8775 8.40657 17.602 8.1537C16.3265 7.90083 15.0087 7.96115 13.7616 8.32948C12.5146 8.69781 11.3755 9.36315 10.4421 10.2684C9.50867 11.1737 8.8088 12.2919 8.4025 13.5271C7.9962 14.7623 7.8956 16.0777 8.10934 17.3603C8.32308 18.6429 8.84477 19.8545 9.62966 20.8912C10.4146 21.928 11.4392 22.7588 12.6158 23.3125" stroke="#FFC301" stroke-width="2" stroke-linecap="round"/>
</g>
<defs>
<clipPath id="clip0_8693_65">
<rect width="40" height="40" fill="white"/>
</clipPath>
</defs>
</svg>
