<svg xmlns="http://www.w3.org/2000/svg" height="100%" width="100%" viewBox="0 0 256 256">
  <g>
    <path id="path1" transform="rotate(0,128,128) translate(0,12.3400039672852) scale(8,8)  " fill="#FFFFFF" d="M15.438995,11.154995C18.272003,11.154995 20.567993,13.450008 20.567993,16.283014 20.567993,19.115015 18.272003,21.411005 15.438995,21.411005 12.605988,21.411005 10.309998,19.115015 10.309998,16.283014 10.309998,13.450008 12.605988,11.154995 15.438995,11.154995z M15.438995,9.641019C11.770996,9.641019 8.7969971,12.61401 8.7969971,16.283014 8.7969971,19.951014 11.770996,22.925011 15.438995,22.925011 16.527985,22.925011 17.556,22.663017 18.463013,22.197991L18.589996,22.131004 20.289001,24.291008 23.204987,24.291008 20.398987,20.700007 20.462006,20.629999C21.471008,19.465021 22.080994,17.945002 22.080994,16.283014 22.080994,12.61401 19.106995,9.641019 15.438995,9.641019z M2.9029846,0L13.126984,0C14.730011,-1.0430631E-07,16.031006,1.3000178,16.031006,2.9030143L16.031006,4.2950121 29.096008,4.2950121C30.700012,4.2950121,32,5.5949994,32,7.1979958L32,26.012016C32,27.61599,30.700012,28.914999,29.096008,28.914999L2.9029846,28.914999C1.2999878,28.914999,0,27.61599,0,26.012016L0,7.1979958C0,7.148008,0.0010070801,7.0980202,0.0039978027,7.049009L0.0060119629,7.016996 0.0039978027,6.9850136C0.0010070801,6.9349953,0,6.8850075,0,6.8350197L0,2.9030143C0,1.3000178,1.2999878,-1.0430631E-07,2.9029846,0z" />
  </g>
</svg>