<svg width="40" height="40" viewBox="0 0 40 40" fill="none" xmlns="http://www.w3.org/2000/svg">
<path d="M12.4667 3.19702C12.5841 2.84797 12.8082 2.54463 13.1074 2.32985C13.4066 2.11506 13.7656 1.99968 14.1339 2H25.181L13.7143 35.9772C13.5967 36.3257 13.3727 36.6285 13.0739 36.843C12.775 37.0574 12.4165 37.1727 12.0486 37.1726H3.45103C3.17163 37.173 2.89615 37.1068 2.64745 36.9795C2.39875 36.8521 2.18399 36.6673 2.02099 36.4404C1.85799 36.2135 1.75144 35.951 1.71018 35.6746C1.66893 35.3983 1.69415 35.1161 1.78376 34.8514L12.4667 3.19702Z" fill="url(#paint0_linear_8655_200)"/>
<path d="M30.1289 24.8613H12.7168C12.5551 24.8619 12.3973 24.911 12.2639 25.0023C12.1305 25.0935 12.0275 25.2228 11.9683 25.3732C11.9091 25.5236 11.8964 25.6884 11.9319 25.8461C11.9674 26.0038 12.0494 26.1473 12.1674 26.2578L23.3553 36.7001C23.6815 37.0041 24.1106 37.1719 24.5555 37.1719H34.4135L30.1289 24.8613Z" fill="#0078D4"/>
<path d="M25.181 2H12.8704L1 37.1726H13.3106L15.8376 29.6834L23.862 37.1726H34.4151L30.129 24.862H17.4653L25.181 2Z" fill="url(#paint1_linear_8655_200)"/>
<path d="M28.2227 3.19702C28.1054 2.84822 27.8815 2.54507 27.5826 2.33031C27.2838 2.11555 26.925 2.00001 26.557 2H14.191H14.2465C15.0017 2 15.6715 2.48134 15.9121 3.19702L26.5966 34.8514C26.6862 35.1159 26.7114 35.398 26.6703 35.6742C26.6291 35.9504 26.5227 36.2129 26.3599 36.4398C26.197 36.6667 25.9825 36.8515 25.734 36.9789C25.4855 37.1064 25.2102 37.1728 24.9309 37.1726H24.7409H37.2415C37.5208 37.1728 37.7961 37.1064 38.0446 36.9789C38.2931 36.8515 38.5076 36.6667 38.6704 36.4398C38.8332 36.2129 38.9397 35.9504 38.9808 35.6742C39.022 35.398 38.9968 35.1159 38.9072 34.8514L28.2227 3.19702Z" fill="url(#paint2_linear_8655_200)"/>
<defs>
<linearGradient id="paint0_linear_8655_200" x1="14.0579" y1="3.2176" x2="2.58652" y2="37.1077" gradientUnits="userSpaceOnUse">
<stop stop-color="#114A8B"/>
<stop offset="1" stop-color="#0669BC"/>
</linearGradient>
<linearGradient id="paint1_linear_8655_200" x1="23.2335" y1="24.8715" x2="20.5132" y2="25.7994" gradientUnits="userSpaceOnUse">
<stop stop-opacity="0.3"/>
<stop offset="0.071" stop-opacity="0.2"/>
<stop offset="0.321" stop-opacity="0.1"/>
<stop offset="0.623" stop-opacity="0.05"/>
<stop offset="1" stop-opacity="0"/>
</linearGradient>
<linearGradient id="paint2_linear_8655_200" x1="21.332" y1="3.2176" x2="33.9228" y2="36.7657" gradientUnits="userSpaceOnUse">
<stop stop-color="#3CCBF4"/>
<stop offset="1" stop-color="#2892DF"/>
</linearGradient>
</defs>
</svg>
