<svg width="40" height="40" viewBox="0 0 40 40" fill="none" xmlns="http://www.w3.org/2000/svg">
<path d="M19.9988 39C9.49365 39 1 30.5063 1 19.9988C1 9.49365 9.49365 1 19.9988 1C30.5063 1 39 9.49365 39 19.9988C39 30.5063 30.5063 39 19.9988 39Z" fill="#0060FE"/>
<path d="M21 10H10C8.89543 10 8 10.8954 8 12V23.7217C8 24.1768 8.55853 24.3953 8.8673 24.061L11.0519 21.6956C11.4305 21.2857 11.9632 21.0526 12.5212 21.0526H21C22.1046 21.0526 23 20.1572 23 19.0526V12C23 10.8954 22.1046 10 21 10Z" fill="white"/>
<path d="M26.4788 26.0526H18C16.8954 26.0526 16 25.1572 16 24.0526V23.4667C16 22.9144 16.4477 22.4667 17 22.4667H21.4375C23.0944 22.4667 24.4375 21.1235 24.4375 19.4667V16C24.4375 15.4477 24.8852 15 25.4375 15H29C30.1046 15 31 15.8954 31 17V28.7217C31 29.1768 30.4415 29.3953 30.1327 29.061L27.9481 26.6956C27.5695 26.2857 27.0368 26.0526 26.4788 26.0526Z" fill="white"/>
</svg>
