<svg width="40" height="40" viewBox="0 0 40 40" fill="none" xmlns="http://www.w3.org/2000/svg">
<path d="M36.1 3H3.9C2.85066 3 2 3.85066 2 4.9V8.05686C2 9.6495 2.66633 11.1695 3.83758 12.2487L12.7687 20.4779C13.7447 21.3773 14.3 22.6439 14.3 23.9711V37L21.4042 34.175C22.8506 33.5998 23.8 32.2005 23.8 30.6439V24.1752C23.8 22.7303 24.4577 21.364 25.587 20.4627L35.8557 12.267C37.2108 11.1854 38 9.54583 38 7.81197V4.9C38 3.85066 37.1493 3 36.1 3Z" fill="url(#paint0_linear_8660_359)"/>
<path opacity="0.15" d="M27.1 7H12.9C11.8507 7 11 7.85066 11 8.9V9.81514C11 11.1547 11.4718 12.4514 12.3326 13.4778L16.0395 17.8981C16.7568 18.7534 17.15 19.8341 17.15 20.9504V29L19.8388 27.6163C21.1045 26.9649 21.9 25.6609 21.9 24.2374V21.1449C21.9 19.9117 22.3796 18.7269 23.2374 17.8409L27.3951 13.5465C28.4245 12.4833 29 11.0615 29 9.58167V8.9C29 7.85066 28.1493 7 27.1 7Z" fill="white"/>
<defs>
<linearGradient id="paint0_linear_8660_359" x1="20" y1="3" x2="20" y2="37" gradientUnits="userSpaceOnUse">
<stop stop-color="#FF5C2B"/>
<stop offset="1" stop-color="#982500"/>
</linearGradient>
</defs>
</svg>
