<svg width="40" height="40" viewBox="0 0 40 40" fill="none" xmlns="http://www.w3.org/2000/svg">
<mask id="mask0_8655_152" style="mask-type:alpha" maskUnits="userSpaceOnUse" x="6" y="1" width="28" height="38">
<path d="M23.2727 1H8.59091C7.16591 1 6 2.16591 6 3.59091V36.4091C6 37.8341 7.16591 39 8.59091 39H31.0455C32.4704 39 33.6364 37.8341 33.6364 36.4091V11.3636L23.2727 1Z" fill="white"/>
</mask>
<g mask="url(#mask0_8655_152)">
<path d="M23.2727 1H8.59091C7.16591 1 6 2.16591 6 3.59091V36.4091C6 37.8341 7.16591 39 8.59091 39H31.0455C32.4704 39 33.6364 37.8341 33.6364 36.4091V11.3636L27.5909 7.04544L23.2727 1Z" fill="#0F9D58"/>
</g>
<mask id="mask1_8655_152" style="mask-type:alpha" maskUnits="userSpaceOnUse" x="6" y="1" width="28" height="38">
<path d="M23.2727 1H8.59091C7.16591 1 6 2.16591 6 3.59091V36.4091C6 37.8341 7.16591 39 8.59091 39H31.0455C32.4704 39 33.6364 37.8341 33.6364 36.4091V11.3636L23.2727 1Z" fill="white"/>
</mask>
<g mask="url(#mask1_8655_152)">
<path d="M12.9091 19.5679V32.0906H26.7272V19.5679H12.9091ZM18.9545 30.3633H14.6364V28.2042H18.9545V30.3633ZM18.9545 26.9088H14.6364V24.7497H18.9545V26.9088ZM18.9545 23.4542H14.6364V21.2951H18.9545V23.4542ZM25 30.3633H20.6818V28.2042H25V30.3633ZM25 26.9088H20.6818V24.7497H25V26.9088ZM25 23.4542H20.6818V21.2951H25V23.4542Z" fill="#F1F1F1"/>
</g>
<mask id="mask2_8655_152" style="mask-type:alpha" maskUnits="userSpaceOnUse" x="6" y="1" width="28" height="38">
<path d="M23.2727 1H8.59091C7.16591 1 6 2.16591 6 3.59091V36.4091C6 37.8341 7.16591 39 8.59091 39H31.0455C32.4704 39 33.6364 37.8341 33.6364 36.4091V11.3636L23.2727 1Z" fill="white"/>
</mask>
<g mask="url(#mask2_8655_152)">
<path d="M24.0305 10.6055L33.6363 20.2091V11.3633L24.0305 10.6055Z" fill="url(#paint0_linear_8655_152)"/>
</g>
<mask id="mask3_8655_152" style="mask-type:alpha" maskUnits="userSpaceOnUse" x="6" y="1" width="28" height="38">
<path d="M23.2727 1H8.59091C7.16591 1 6 2.16591 6 3.59091V36.4091C6 37.8341 7.16591 39 8.59091 39H31.0455C32.4704 39 33.6364 37.8341 33.6364 36.4091V11.3636L23.2727 1Z" fill="white"/>
</mask>
<g mask="url(#mask3_8655_152)">
<path d="M23.2727 1V8.77274C23.2727 10.2042 24.4321 11.3636 25.8636 11.3636H33.6363L23.2727 1Z" fill="#87CEAC"/>
</g>
<mask id="mask4_8655_152" style="mask-type:alpha" maskUnits="userSpaceOnUse" x="6" y="1" width="28" height="38">
<path d="M23.2727 1H8.59091C7.16591 1 6 2.16591 6 3.59091V36.4091C6 37.8341 7.16591 39 8.59091 39H31.0455C32.4704 39 33.6364 37.8341 33.6364 36.4091V11.3636L23.2727 1Z" fill="white"/>
</mask>
<g mask="url(#mask4_8655_152)">
<path d="M8.59091 1C7.16591 1 6 2.16591 6 3.59091V3.80682C6 2.38182 7.16591 1.21591 8.59091 1.21591H23.2727V1H8.59091Z" fill="white" fill-opacity="0.2"/>
</g>
<mask id="mask5_8655_152" style="mask-type:alpha" maskUnits="userSpaceOnUse" x="6" y="1" width="28" height="38">
<path d="M23.2727 1H8.59091C7.16591 1 6 2.16591 6 3.59091V36.4091C6 37.8341 7.16591 39 8.59091 39H31.0455C32.4704 39 33.6364 37.8341 33.6364 36.4091V11.3636L23.2727 1Z" fill="white"/>
</mask>
<g mask="url(#mask5_8655_152)">
<path d="M31.0455 38.7838H8.59091C7.16591 38.7838 6 37.6179 6 36.1929V36.4088C6 37.8338 7.16591 38.9997 8.59091 38.9997H31.0455C32.4704 38.9997 33.6364 37.8338 33.6364 36.4088V36.1929C33.6364 37.6179 32.4704 38.7838 31.0455 38.7838Z" fill="#263238" fill-opacity="0.2"/>
</g>
<mask id="mask6_8655_152" style="mask-type:alpha" maskUnits="userSpaceOnUse" x="6" y="1" width="28" height="38">
<path d="M23.2727 1H8.59091C7.16591 1 6 2.16591 6 3.59091V36.4091C6 37.8341 7.16591 39 8.59091 39H31.0455C32.4704 39 33.6364 37.8341 33.6364 36.4091V11.3636L23.2727 1Z" fill="white"/>
</mask>
<g mask="url(#mask6_8655_152)">
<path d="M25.8636 11.3634C24.4321 11.3634 23.2727 10.2039 23.2727 8.77246V8.98836C23.2727 10.4198 24.4321 11.5793 25.8636 11.5793H33.6363V11.3634H25.8636Z" fill="#263238" fill-opacity="0.1"/>
</g>
<path d="M23.2727 1H8.59091C7.16591 1 6 2.16591 6 3.59091V36.4091C6 37.8341 7.16591 39 8.59091 39H31.0455C32.4704 39 33.6364 37.8341 33.6364 36.4091V11.3636L23.2727 1Z" fill="url(#paint1_radial_8655_152)"/>
<defs>
<linearGradient id="paint0_linear_8655_152" x1="28.8339" y1="11.4301" x2="28.8339" y2="20.2105" gradientUnits="userSpaceOnUse">
<stop stop-color="#263238" stop-opacity="0.2"/>
<stop offset="1" stop-color="#263238" stop-opacity="0.02"/>
</linearGradient>
<radialGradient id="paint1_radial_8655_152" cx="0" cy="0" r="1" gradientUnits="userSpaceOnUse" gradientTransform="translate(6.87553 1.75533) scale(44.5633 44.5633)">
<stop stop-color="white" stop-opacity="0.1"/>
<stop offset="1" stop-color="white" stop-opacity="0"/>
</radialGradient>
</defs>
</svg>
