<svg width="40" height="40" viewBox="0 0 40 40" fill="none" xmlns="http://www.w3.org/2000/svg">
<path d="M32.0586 4.99512C34.7947 4.99523 37.0125 7.21318 37.0127 9.94922V20.1328C37.0127 20.1957 37.0075 20.2575 37 20.3184V20.9385C34.8298 18.8428 31.8765 17.5508 28.6201 17.5508C21.9586 17.551 16.5586 22.9473 16.5586 29.6035C16.5586 32.869 17.8599 35.8295 19.9707 38H8C7.64296 38 7.29483 37.9618 6.95898 37.8906C4.69795 37.4311 2.99609 35.4318 2.99609 33.0352V9.94922C2.99633 7.21329 5.21428 4.99542 7.9502 4.99512H32.0586ZM5.99609 16H34.0127V15.3252H5.99609V16ZM7.9502 7.99512C6.87114 7.99542 5.99633 8.87015 5.99609 9.94922V12.3252H34.0127V9.94922C34.0125 8.87003 33.1378 7.99523 32.0586 7.99512H7.9502Z" fill="#EAF0FF"/>
<path d="M28.8184 20.2725C33.7888 20.2727 37.8184 24.3021 37.8184 29.2725C37.8183 34.2428 33.7888 38.2723 28.8184 38.2725C23.8478 38.2725 19.8174 34.2429 19.8174 29.2725C19.8174 24.302 23.8477 20.2725 28.8184 20.2725ZM28 24.5C27.1716 24.5 26.5 25.1716 26.5 26V30C26.5 30.3978 26.6581 30.7792 26.9395 31.0605L29.9395 34.0605C30.5252 34.6463 31.4748 34.6463 32.0605 34.0605C32.6463 33.4748 32.6463 32.5252 32.0605 31.9395L29.5 29.3789V26C29.5 25.1716 28.8284 24.5 28 24.5Z" fill="#4486F4"/>
<path d="M3 10C3 7.23858 5.23858 5 8 5H32C34.7614 5 37 7.23858 37 10V16H3V10Z" fill="#E03A2C"/>
<circle cx="11" cy="9" r="3" fill="white"/>
<circle cx="30" cy="9" r="3" fill="white"/>
<path d="M11 3V9" stroke="#5E6377" stroke-width="3" stroke-linecap="round" stroke-linejoin="round"/>
<path d="M30 3V9" stroke="#5E6377" stroke-width="3" stroke-linecap="round" stroke-linejoin="round"/>
<rect x="6" y="28" width="4" height="4" rx="1" fill="#93989F"/>
<rect x="6" y="20" width="4" height="4" rx="1" fill="#93989F"/>
<rect x="12" y="20" width="4" height="4" rx="1" fill="#93989F"/>
<rect x="12" y="28" width="4" height="4" rx="1" fill="#93989F"/>
</svg>
