<svg width="40" height="40" viewBox="0 0 40 40" fill="none" xmlns="http://www.w3.org/2000/svg">
<path d="M19.9487 38.9502C9.4436 38.9502 0.949951 30.4565 0.949951 19.949C0.949951 9.44385 9.4436 0.950195 19.9487 0.950195C30.4563 0.950195 38.95 9.44385 38.95 19.949C38.95 30.4565 30.4563 38.9502 19.9487 38.9502Z" fill="url(#paint0_linear_8655_27)"/>
<path fill-rule="evenodd" clip-rule="evenodd" d="M9.54013 19.7434C15.0772 17.3386 18.7637 15.7428 20.6143 14.9659C25.8817 12.7664 26.9901 12.3879 27.7026 12.373C27.861 12.373 28.2074 12.4027 28.4449 12.5932C28.6354 12.7516 28.6824 12.9569 28.7146 13.1153C28.7467 13.2736 28.7764 13.6052 28.7467 13.86C28.4597 16.866 27.2276 24.1573 26.5942 27.5122C26.3246 28.9348 25.8025 29.4098 25.2978 29.4568C24.1894 29.5533 23.3507 28.7294 22.2917 28.0342C20.6143 26.9431 19.6816 26.2628 18.0511 25.1865C16.1683 23.9519 17.388 23.2715 18.4618 22.1656C18.7463 21.8811 23.603 17.4499 23.6995 17.0541C23.7144 17.0071 23.7144 16.8166 23.603 16.7225C23.4942 16.6285 23.3358 16.6582 23.2096 16.6904C23.034 16.7225 20.3768 18.494 15.2034 21.9899C14.4438 22.512 13.7635 22.7668 13.1474 22.7495C12.467 22.7347 11.1706 22.371 10.1884 22.0543C9.00325 21.6733 8.05319 21.4679 8.13236 20.8048C8.17937 20.456 8.6544 20.1071 9.54013 19.7434Z" fill="white"/>
<defs>
<linearGradient id="paint0_linear_8655_27" x1="19.9339" y1="0.950195" x2="19.9339" y2="38.6492" gradientUnits="userSpaceOnUse">
<stop stop-color="#2AABEE"/>
<stop offset="1" stop-color="#229ED9"/>
</linearGradient>
</defs>
</svg>
