<svg width="40" height="40" viewBox="0 0 40 40" fill="none" xmlns="http://www.w3.org/2000/svg">
<path d="M18.8085 16.8202C17.2296 19.4715 15.7102 22.0484 14.1611 24.6105C13.7589 25.2659 13.5653 25.8021 13.8781 26.6362C14.7569 28.945 13.5206 31.1793 11.1969 31.79C9.00732 32.371 6.87728 30.9261 6.44531 28.5875C6.05803 26.5171 7.66673 24.4764 9.96062 24.1487C10.1543 24.1189 10.3479 24.1189 10.6756 24.0891C11.7928 22.2123 12.9397 20.2908 14.1611 18.2501C11.9715 16.0754 10.6756 13.5283 10.9586 10.3854C11.1671 8.15105 12.0311 6.22955 13.6398 4.65064C16.7082 1.62688 21.3854 1.13533 24.9901 3.45901C28.4607 5.69332 30.0396 10.0279 28.699 13.7368C27.6712 13.4538 26.6435 13.1857 25.5263 12.8729C25.9583 10.8024 25.6306 8.9554 24.2453 7.3616C23.3218 6.31892 22.145 5.76779 20.8045 5.55926C18.1084 5.15708 15.4719 6.88495 14.6825 9.52143C13.7887 12.5303 15.1293 14.9731 18.8085 16.8202Z" fill="#C73A63"/>
<path d="M23.3218 13.6774C24.4389 15.6436 25.571 17.6396 26.6881 19.6058C32.3484 17.8481 36.6233 20.9911 38.1576 24.3425C40.0046 28.3941 38.7385 33.2053 35.104 35.6928C31.3802 38.2548 26.6583 37.8228 23.3516 34.5161C24.2006 33.816 25.0347 33.101 25.9433 32.3413C29.2054 34.4565 32.0654 34.3522 34.1805 31.8498C35.9828 29.7198 35.953 26.5321 34.0911 24.4319C31.9462 22.0188 29.0714 21.9444 25.6008 24.268C24.1559 21.706 22.6962 19.1738 21.296 16.5969C20.8193 15.733 20.3129 15.2265 19.2404 15.0478C17.4679 14.735 16.3209 13.2157 16.2613 11.5176C16.1869 9.83441 17.1849 8.31508 18.734 7.71927C20.2682 7.13835 22.0705 7.6001 23.1132 8.9109C23.9623 9.98337 24.2304 11.175 23.7835 12.5007C23.6644 12.888 23.5005 13.2455 23.3218 13.6774Z" fill="#4B4B4B"/>
<path d="M25.988 29.7347H19.1659C18.5105 32.4158 17.0955 34.5905 14.6675 35.9758C12.7758 37.0483 10.7352 37.4058 8.57533 37.0632C4.58337 36.4227 1.32127 32.818 1.02337 28.7813C0.695669 24.1936 3.85349 20.1271 8.05399 19.2036C8.337 20.2612 8.63491 21.3188 8.93282 22.3763C5.07491 24.3425 3.74922 26.8152 4.82169 29.9134C5.775 32.6392 8.47106 34.1288 11.3906 33.5628C14.3845 32.9669 15.889 30.4943 15.7102 26.5024C18.5403 26.5024 21.3854 26.4726 24.2155 26.5172C25.3177 26.5321 26.1817 26.413 27.0158 25.4448C28.3862 23.8361 30.9184 23.985 32.3931 25.5044C33.8975 27.0535 33.8379 29.5559 32.2292 31.0305C30.6801 32.4605 28.2521 32.386 26.8073 30.8369C26.5094 30.5092 26.2859 30.1219 25.988 29.7347Z" fill="#4A4A4A"/>
</svg>
